<?xml version="1.0" encoding="UTF-8"?>
<svg version="1.1" viewBox="0 0 1000 1000" width="1280" height="1280" xmlns="http://www.w3.org/2000/svg">
<path transform="translate(0)" d="m0 0h1e3v1e3h-1e3z" fill="#0E0E0E"/>
<path transform="translate(188,552)" d="m0 0h638v1l-45 2-577 23h-10l-2-6z" fill="#F6F6F6"/>
<path transform="translate(169,423)" d="m0 0h19l5 4 12 16 10 13 13 17 10 13 1 2 3 1-1-3v-62l1-1h19l1 1v104h-20l-10-13-12-16-14-18-9-12-7-9-1 68h-20z" fill="#F6F6F6"/>
<path transform="translate(508,450)" d="m0 0h19l7 26 5 20 1 2 14-46 2-2h16l3 7 12 40 1 1 11-44 2-4h18l-1 8-19 69-1 1h-20l-14-47-3 8-12 39h-20l-3-8-18-66z" fill="#F6F6F6"/>
<path transform="translate(649,449)" d="m0 0h20l11 4 8 7 4 8 1 4v56h-20v-5l-10 5-4 1h-17l-10-4-7-7-3-7v-11l4-8 7-6 7-3 6-1h16l11 2-2-10-3-5-6-2h-12l-13 4-5 1-6-12v-4l18-6z" fill="#F6F6F6"/>
<path transform="translate(790,449)" d="m0 0h15l11 4 10 8 6 10 3 7 1 7v11l-57 1 3 6 1 3 4 2 7 3h12l8-3 4-2 7 7 5 4-2 4-9 5-9 3h-20l-11-4-9-6-6-7-5-10-2-10 1-12 4-10 6-9 7-6 11-5z" fill="#F6F6F6"/>
<path transform="translate(304,449)" d="m0 0h14l10 3 11 8 6 9 4 10 1 6v11h-58l5 8 6 5 5 2h12l8-3 4-2 7 7 5 4-2 4-11 6-7 2h-21l-12-5-9-7-7-10-3-9-1-12 3-12 4-8 8-9 9-5z" fill="#F6F6F6"/>
<path transform="translate(430,450)" d="m0 0h19l1 48 3 8 5 4 10 1 9-3 3-2 1-3 1-53h20v78h-21l1-5-11 5-3 1h-17l-12-6-7-9-3-9v-54z" fill="#F6F6F6"/>
<path transform="translate(356,450)" d="m0 0h64l1 1v11l-2 5-26 30-9 11-2 3h39v17h-66v-15l24-28 9-11 4-5 1-2h-38v-16z" fill="#F6F6F6"/>
<path transform="translate(738,449)" d="m0 0h15l1 1v18l-6-1h-8l-8 3-6 7-1 51h-20l-1-76 1-2h19l2 6 9-6z" fill="#F6F6F6"/>
<path transform="translate(652,495)" d="m0 0h9l10 2 2 2v10l-5 4-8 2h-8l-7-3-3-3-1-6 2-4 5-3z" fill="#0E0E0E"/>
<path transform="translate(306,466)" d="m0 0h10l7 4 5 6 2 5h-37l1-6 4-5z" fill="#0E0E0E"/>
<path transform="translate(792,466)" d="m0 0h10l7 4 5 6 2 5h-38l3-7 5-5z" fill="#0E0E0E"/>
</svg>
